<svg id="Layer_1" xmlns="http://www.w3.org/2000/svg" viewBox="0 0 660.17 170.89"><style>.st0{fill:#ecbc0d}.st1{fill:#1a1a1a}.st2{fill:#fff}</style><path class="st0" d="M28.23 41.07v76.91c0 5.05 4.1 9.15 9.15 9.15h11.9c2.24 0 4.06 1.82 4.06 4.06v17.21c0 3.42 3.97 5.3 6.62 3.14l28.81-23.49c.72-.59 1.63-.91 2.56-.91h51.07c5.05 0 9.15-4.1 9.15-9.15V41.07c0-5.05-4.1-9.15-9.15-9.15H37.38c-5.06 0-9.15 4.1-9.15 9.15z"/><path class="st1" d="M186.82 88.72c1.25-.04 2.19-.2 2.84-.45.65-.25 1.16-.8 1.53-1.63.37-.83.55-2.15.55-3.95V56.14c0-2.59.09-4.67.28-6.24l-5.2.21v-5.34h19.89v4.58c-1.25.05-2.2.2-2.84.45-.65.25-1.16.8-1.52 1.63-.37.83-.55 2.15-.55 3.95v10.54h4.99l5.34-9.08c2.22-3.88 3.79-6.19 4.71-6.93v-.07c-1.02.09-1.9.15-2.63.17-.74.02-1.32.06-1.73.1v-5.34h16.98v4.58c-1.99.09-3.85.6-5.58 1.53-1.73.92-3.46 2.77-5.16 5.54l-6.65 10.67v.07c1.76 1.06 3.21 2.4 4.37 4.02l7.14 10.05c3.42 4.85 6.45 7.35 9.08 7.49v4.58h-10.68c-.51-.05-1.51-.87-3.01-2.46-1.5-1.59-2.76-3.13-3.78-4.61l-6.86-9.98c-.65-.92-1.34-1.85-2.08-2.77-.74-.92-1.39-1.59-1.94-2.01h-2.5v10.47c0 2.59-.09 4.67-.28 6.24 1.48-.14 3.21-.21 5.2-.21v5.34h-19.89v-4.59zM243.11 88.72c1.25-.04 2.19-.2 2.84-.45.65-.25 1.16-.8 1.53-1.63.37-.83.55-2.15.55-3.95V56.14c0-2.59.09-4.67.28-6.24l-5.2.21v-5.34h34.66l.42 13.45h-4.57c0-3.42-.82-5.79-2.46-7.11-1.64-1.32-3.62-1.93-5.93-1.84l-2.5.07c-1.11.05-1.99.2-2.63.45-.65.25-1.14.82-1.49 1.7-.35.88-.52 2.17-.52 3.88v10.4h8.11c-.05-.79-.14-2.8-.28-6.03h5.34v16.84h-4.57c0-1.85-.29-3.21-.87-4.09-.58-.88-1.33-1.44-2.25-1.7s-2.15-.36-3.67-.31l-1.8.07v11.37c0 2.5-.09 4.53-.28 6.1h9.29c2.36 0 4.36-.8 6-2.39 1.64-1.59 2.46-4.12 2.46-7.59h4.51l-.35 15.25h-36.6v-4.57zM293.29 88.72c1.25-.04 2.19-.2 2.84-.45.65-.25 1.16-.8 1.53-1.63.37-.83.55-2.15.55-3.95V56.14c0-2.59.09-4.67.28-6.24l-5.2.21v-5.34h19.9v4.58c-1.25.05-2.2.2-2.84.45-.65.25-1.16.8-1.52 1.63-.37.83-.55 2.15-.55 3.95v26.55c0 2.59-.09 4.67-.28 6.24 1.48-.14 3.21-.21 5.2-.21v5.34h-19.9v-4.58zM341.75 65.64c-1.16-1.48-2.43-3.21-3.81-5.2h-.07l.13 21.49c0 2.59-.09 4.67-.28 6.24 1.48-.14 3.21-.21 5.2-.21v5.34h-15.8v-4.58c1.25-.04 2.19-.2 2.84-.45.65-.25 1.16-.8 1.53-1.63.37-.83.55-2.15.55-3.95l-.14-26.55c0-3.1.09-5.17.28-6.24l-5.27.21v-5.34h10.88L359 71.53c1.94 2.54 3.56 4.74 4.85 6.58h.07V56.14c0-3 .07-5.08.21-6.24l-5.2.21v-5.34h15.8v4.58c-1.25.05-2.2.2-2.84.45-.65.25-1.16.8-1.53 1.63-.37.83-.55 2.15-.55 3.95v38.61h-5.89l-22.17-28.35zM387.56 88.72c1.25-.04 2.19-.2 2.84-.45.65-.25 1.16-.8 1.53-1.63.37-.83.55-2.15.55-3.95V56.14c0-2.59.09-4.67.28-6.24l-5.2.21v-5.34h34.66l.42 13.45h-4.57c0-3.42-.82-5.79-2.46-7.11-1.64-1.32-3.62-1.93-5.93-1.84l-2.5.07c-1.11.05-1.99.2-2.63.45-.65.25-1.14.82-1.49 1.7-.35.88-.52 2.17-.52 3.88v10.4h8.11c-.05-.79-.14-2.8-.28-6.03h5.34v16.84h-4.57c0-1.85-.29-3.21-.87-4.09-.58-.88-1.33-1.44-2.25-1.7s-2.15-.36-3.67-.31l-1.8.07v11.37c0 2.5-.09 4.53-.28 6.1h9.29c2.36 0 4.36-.8 6-2.39 1.64-1.59 2.46-4.12 2.46-7.59h4.51l-.35 15.25h-36.6v-4.57z"/><g><path class="st2" d="M53.46 95.98c1.03-.04 1.8-.16 2.34-.37.53-.21.95-.66 1.25-1.34.3-.68.46-1.77.46-3.25V69.19c0-2.13.08-3.84.23-5.13l-4.27.17v-4.39l16.59-.06c4.75 0 8.77.94 12.06 2.82 3.29 1.88 5.74 4.32 7.35 7.33 1.61 3 2.42 6.16 2.42 9.46 0 3.34-.77 6.56-2.31 9.66-1.54 3.1-3.97 5.65-7.3 7.67-3.33 2.01-7.5 3.02-12.51 3.02h-16.3v-3.76zm24.17-2.51c1.79-1.41 3.11-3.24 3.96-5.5.86-2.26 1.28-4.72 1.28-7.38 0-5.78-1.18-10.05-3.54-12.82s-5.68-4.16-9.97-4.16c-1.29 0-2.21.32-2.76.97-.55.65-.83 1.94-.83 3.88v21.95c0 2.13-.08 3.84-.23 5.13.19-.04.55-.06 1.08-.06l2.45.06a24 24 0 0 0 1.88.06c2.67-.02 4.89-.72 6.68-2.13zM95.93 95.98c1.03-.04 1.8-.16 2.34-.37.53-.21.95-.66 1.25-1.34.3-.68.46-1.77.46-3.25V69.19c0-2.13.08-3.84.23-5.13l-4.27.17v-4.39h28.5l.34 11.06h-3.76c0-2.81-.68-4.76-2.02-5.84-1.35-1.08-2.97-1.59-4.87-1.51l-2.05.06c-.91.04-1.63.16-2.17.37-.53.21-.94.67-1.23 1.4-.28.72-.43 1.79-.43 3.19v8.55h6.67c-.04-.65-.11-2.3-.23-4.96h4.39V86h-3.76c0-1.52-.24-2.64-.71-3.36-.48-.72-1.09-1.19-1.85-1.4-.76-.21-1.77-.29-3.02-.26l-1.48.06v9.35c0 2.05-.08 3.72-.23 5.02h7.64c1.94 0 3.58-.66 4.93-1.97 1.35-1.31 2.02-3.39 2.02-6.24h3.71l-.29 12.54h-30.1v-3.76z"/></g><g><path class="st0" d="M188.5 124.01c-.07-.14-.11-.3-.11-.46 0-.13.03-.26.08-.39s.12-.24.21-.34.2-.18.33-.24.27-.09.41-.09c.21 0 .42.06.63.18l.22.12c.13.07.22.12.26.15s.14.07.28.13.25.12.33.15.19.07.33.13.27.1.39.12.26.06.41.09.31.05.47.06.33.02.49.02c.3 0 .58-.02.84-.06s.51-.12.74-.22.42-.25.56-.44.21-.42.21-.67c0-.28-.13-.53-.38-.75s-.63-.39-1.14-.53l-1.75-.46c-.41-.12-.76-.22-1.03-.3s-.56-.18-.86-.3-.55-.24-.74-.36-.37-.27-.56-.44-.32-.36-.42-.56-.18-.43-.24-.7-.09-.56-.09-.89c0-.53.12-1.01.35-1.44s.56-.78.98-1.06.92-.5 1.5-.64 1.22-.22 1.92-.22c1.3 0 2.57.29 3.81.87.23.11.41.26.52.44s.17.38.17.58c0 .26-.09.48-.26.67s-.4.29-.68.29c-.08 0-.16-.01-.24-.02s-.17-.04-.25-.07c-.02-.01-.06-.02-.12-.05-1.09-.38-2.02-.57-2.79-.57-.34 0-.65.03-.93.09s-.53.18-.74.35-.31.38-.31.63c0 .34.11.6.33.77s.62.32 1.2.46l1.73.43c.64.16 1.18.34 1.62.53s.83.43 1.16.7.58.61.73.99.23.83.23 1.34c0 .81-.21 1.5-.63 2.07s-.99.99-1.69 1.26-1.52.4-2.44.4c-1.82 0-3.39-.46-4.7-1.38-.15-.1-.26-.22-.34-.37zM203.83 125.29c-.27-.21-.41-.51-.41-.92 0-.39.16-.8.49-1.23l5.46-6.91h-4.27c-.45 0-.81-.1-1.07-.3s-.39-.5-.39-.9c0-.38.12-.68.37-.9s.61-.32 1.08-.32h6.53c1.16 0 1.73.39 1.73 1.16 0 .33-.18.75-.53 1.25l-5.41 6.97h4.75c.37 0 .66.12.87.36s.32.51.32.83c0 .4-.13.7-.38.91s-.61.31-1.07.31h-7c-.44 0-.8-.1-1.07-.31zM219.7 125.1c-.27-.33-.4-.81-.4-1.44v-13.08c0-.62.14-1.1.42-1.44s.67-.5 1.18-.5c.53 0 .94.17 1.23.5s.43.81.43 1.44v8.33l4.63-4.78a1.598 1.598 0 0 1 .49-.37c.09-.04.17-.06.25-.08s.17-.03.25-.03c.09 0 .19.01.28.03s.18.05.26.09.16.09.23.14.14.12.21.18.12.14.18.22.1.16.13.25.06.17.08.26.03.19.03.28c0 .34-.12.64-.38.9l-3.26 3.26 3.74 4.02c.25.28.38.58.38.9 0 .38-.15.7-.46.98a1.555 1.555 0 0 1-1.37.39c-.1-.02-.2-.05-.3-.1s-.2-.11-.29-.18-.19-.16-.28-.26l-4.78-5.32v3.96c0 .62-.15 1.1-.44 1.44s-.71.5-1.25.5c-.53.01-.92-.16-1.19-.49zM238.55 125.25c-.82-.32-1.47-.77-1.97-1.32s-.88-1.2-1.14-1.91-.39-1.48-.39-2.3c0-.81.13-1.58.38-2.3s.63-1.36 1.13-1.93 1.16-1.02 1.97-1.35 1.74-.5 2.78-.5c1.02 0 1.93.16 2.73.47s1.46.75 1.97 1.31.9 1.2 1.17 1.92.4 1.52.4 2.37c0 .8-.13 1.55-.39 2.26s-.63 1.35-1.13 1.92-1.15 1.02-1.97 1.35-1.74.5-2.78.5c-1.02 0-1.95-.16-2.76-.49zm4.96-2.68c.52-.68.77-1.63.77-2.85 0-1.25-.26-2.22-.77-2.9s-1.24-1.03-2.2-1.03-1.69.34-2.2 1.03-.77 1.65-.77 2.9c0 1.21.26 2.16.77 2.85s1.25 1.03 2.19 1.03 1.69-.35 2.21-1.03zM255.02 125.1c-.27-.33-.41-.81-.41-1.44v-4.69l-.46.29c-.21.11-.38.16-.5.16-.27 0-.49-.12-.68-.36s-.28-.51-.28-.81c0-.39.15-.68.45-.87l1.48-.96v-5.85c0-.62.14-1.09.42-1.42s.67-.5 1.18-.5c.53 0 .94.17 1.24.5s.44.81.44 1.42v3.74l.66-.42c.16-.1.31-.15.47-.15.27 0 .51.13.72.39s.31.54.31.84c0 .34-.14.59-.41.77l-1.75 1.12v6.79c0 .62-.15 1.1-.45 1.44s-.71.5-1.24.5c-.53.01-.92-.16-1.19-.49zM264.59 121.01c.12-.39.31-.72.59-1s.6-.5.97-.67.85-.31 1.44-.41 1.21-.17 1.87-.21 1.45-.05 2.39-.05v-.84c0-1.34-.66-2.02-1.99-2.02-.43 0-.89.05-1.37.16s-.84.21-1.08.29-.55.21-.95.37c-.04.02-.08.03-.12.04s-.08.02-.12.02-.08.01-.12.01c-.29 0-.54-.12-.74-.38s-.3-.53-.3-.83c0-.2.05-.37.14-.53s.24-.29.43-.38c1.3-.62 2.76-.93 4.39-.93.74 0 1.4.08 1.99.25s1.1.43 1.55.79.79.85 1.04 1.46.36 1.34.36 2.19v5.64c0 .52-.15.92-.45 1.2s-.64.43-1.04.43c-.26 0-.5-.06-.74-.19-.52-.28-.77-.77-.77-1.45v-.33c-.27.68-.71 1.2-1.33 1.56s-1.35.54-2.2.54c-1.16 0-2.12-.3-2.88-.9s-1.13-1.42-1.13-2.45c-.01-.53.05-.99.17-1.38zm5.4 2.57c.34-.15.65-.36.92-.63s.49-.61.66-1.01.25-.83.25-1.28v-.39c-.51 0-.93 0-1.27.01s-.68.03-1.03.06-.63.07-.84.13-.42.13-.62.22-.35.2-.45.33-.19.29-.25.47-.09.4-.09.64c0 .52.15.93.45 1.23s.71.45 1.22.45c.37 0 .71-.08 1.05-.23zM289.67 129.76c-.2-.24-.29-.53-.29-.86 0-.3.09-.57.27-.79s.43-.33.75-.33c.37-.01.65-.04.85-.08s.37-.15.51-.3.23-.37.28-.64.06-.65.06-1.14v-9.88c0-.62.15-1.09.44-1.41s.7-.49 1.21-.49c1.08 0 1.62.62 1.62 1.85v9.95c0 .55-.02 1.01-.06 1.39s-.13.75-.25 1.11-.3.65-.53.88-.52.43-.88.6-.8.3-1.32.38-1.13.12-1.85.12c-.35 0-.62-.12-.81-.36zm2.59-18.75c-.34-.31-.51-.72-.51-1.23s.17-.92.52-1.24.79-.47 1.35-.47c.55 0 .99.16 1.32.47s.5.73.5 1.24-.17.92-.51 1.23-.78.47-1.33.47-1-.16-1.34-.47zM303.12 124.12c-1.14-1.07-1.71-2.57-1.71-4.5 0-1.09.24-2.09.71-2.99s1.17-1.62 2.08-2.16 1.97-.81 3.15-.81c.93 0 1.75.15 2.46.46s1.28.72 1.7 1.25.74 1.13.96 1.79.33 1.39.33 2.17c0 .31-.08.56-.25.74s-.41.27-.73.27h-7.15c.1 2.1 1.18 3.15 3.25 3.15 1.02 0 2.03-.39 3.05-1.16.14-.12.3-.18.47-.18.13 0 .26.04.39.11s.24.16.33.27.17.24.23.38.09.29.09.43c0 .04 0 .07-.01.11s-.01.06-.01.1-.01.07-.02.1-.03.06-.04.09-.03.06-.05.09l-.06.09c-.02.03-.05.06-.08.09s-.06.06-.09.08c-1.23 1.09-2.74 1.64-4.54 1.64-1.84 0-3.33-.54-4.46-1.61zm6.93-5.46c-.14-2-1.02-3-2.62-3-.83 0-1.48.29-1.95.87s-.73 1.29-.79 2.13h5.36zm1.23 12.22c-.32.07-.63.11-.93.11-.53 0-1.01-.11-1.43-.32s-.75-.51-.98-.9-.35-.84-.35-1.34c0-1.02.47-2.09 1.42-3.2h1.56c-.44.8-.66 1.49-.66 2.06 0 .2.03.39.08.56s.13.31.22.43.2.23.32.33.26.18.4.23.29.11.45.15.3.07.45.08.29.02.43.02v1.46c-.33.16-.66.26-.98.33zM318.74 125.29c-.27-.21-.41-.51-.41-.92 0-.39.16-.8.49-1.23l5.46-6.91h-4.27c-.45 0-.81-.1-1.07-.3s-.39-.5-.39-.9c0-.38.12-.68.37-.9s.61-.32 1.08-.32h6.53c1.16 0 1.73.39 1.73 1.16 0 .33-.18.75-.53 1.25l-5.41 6.97h4.75c.37 0 .66.12.87.36s.32.51.32.83c0 .4-.13.7-.38.91s-.61.31-1.07.31h-7c-.44 0-.8-.1-1.07-.31zM336.8 130.6c-.38 0-.73-.14-1.03-.42s-.46-.63-.46-1.04c0-.24.06-.48.18-.73l2.27-4.57-4.17-7.82c-.12-.24-.19-.48-.19-.71 0-.4.16-.73.47-1.01s.67-.41 1.08-.41c.11 0 .21.01.32.03s.2.05.3.1.19.1.28.17.17.15.25.25.15.21.21.33l3.05 5.88 2.94-5.91c.16-.34.38-.6.63-.77s.53-.25.81-.25c.38 0 .71.13 1 .4s.42.6.42 1.01c0 .12-.02.25-.05.39s-.08.27-.14.4l-6.87 13.79c-.29.6-.73.89-1.3.89zM351.02 125.1c-.27-.33-.4-.81-.4-1.44v-13.08c0-.62.14-1.1.42-1.44s.67-.5 1.18-.5c.53 0 .94.17 1.23.5s.43.81.43 1.44v8.33l4.63-4.78a1.598 1.598 0 0 1 .49-.37c.09-.04.17-.06.25-.08s.17-.03.25-.03c.09 0 .19.01.28.03s.18.05.26.09.16.09.23.14.14.12.21.18.12.14.18.22.1.16.13.25.06.17.08.26.03.19.03.28c0 .34-.12.64-.38.9l-3.26 3.26 3.74 4.02c.25.28.38.58.38.9 0 .38-.15.7-.46.98a1.555 1.555 0 0 1-1.37.39c-.1-.02-.2-.05-.3-.1s-.2-.11-.29-.18-.19-.16-.28-.26l-4.78-5.32v3.96c0 .62-.15 1.1-.44 1.44s-.71.5-1.25.5c-.53.01-.92-.16-1.19-.49zM366.41 121.01c.12-.39.31-.72.59-1s.6-.5.97-.67.85-.31 1.44-.41 1.21-.17 1.87-.21 1.45-.05 2.39-.05v-.84c0-1.34-.66-2.02-1.99-2.02-.43 0-.89.05-1.37.16s-.84.21-1.08.29-.55.21-.95.37c-.04.02-.08.03-.12.04s-.08.02-.12.02-.08.01-.12.01c-.29 0-.54-.12-.74-.38s-.3-.53-.3-.83c0-.2.05-.37.14-.53s.24-.29.43-.38c1.3-.62 2.76-.93 4.39-.93.74 0 1.4.08 1.99.25s1.1.43 1.55.79.79.85 1.04 1.46.36 1.34.36 2.19v5.64c0 .52-.15.92-.45 1.2s-.64.43-1.04.43c-.26 0-.5-.06-.74-.19-.52-.28-.77-.77-.77-1.45v-.33c-.27.68-.71 1.2-1.33 1.56s-1.35.54-2.2.54c-1.16 0-2.12-.3-2.88-.9s-1.13-1.42-1.13-2.45c0-.53.06-.99.17-1.38zm5.41 2.57c.34-.15.65-.36.92-.63s.49-.61.66-1.01.25-.83.25-1.28v-.39c-.51 0-.93 0-1.27.01s-.68.03-1.03.06-.63.07-.84.13-.42.13-.62.22-.35.2-.45.33-.19.29-.25.47-.09.4-.09.64c0 .52.15.93.45 1.23s.71.45 1.22.45c.37 0 .71-.08 1.05-.23zM394.02 125.11c-.27-.33-.41-.8-.41-1.42v-8.19c0-.55.14-.96.43-1.24s.7-.42 1.22-.42c.51 0 .9.14 1.18.42s.42.69.42 1.23v.28c.7-1.41 2.03-2.12 3.97-2.12 1.18 0 2.15.39 2.92 1.17s1.15 1.89 1.15 3.33v5.54c0 .62-.14 1.09-.43 1.42s-.7.49-1.24.49c-.51 0-.9-.16-1.17-.49s-.41-.8-.41-1.42v-5.52c0-.77-.2-1.35-.59-1.76s-.9-.62-1.51-.62c-.73 0-1.37.29-1.89.87s-.79 1.32-.79 2.24v4.79c0 .62-.14 1.09-.43 1.42s-.7.49-1.24.49c-.52 0-.91-.17-1.18-.49zM411.77 111.01c-.34-.31-.5-.72-.5-1.23s.17-.92.51-1.24.79-.47 1.34-.47.99.16 1.33.47.51.73.51 1.24-.17.92-.51 1.23-.79.47-1.34.47-1-.16-1.34-.47zm.13 14.1c-.28-.33-.42-.81-.42-1.44v-7.9c0-.62.14-1.1.42-1.44s.67-.5 1.18-.5c.53 0 .94.17 1.24.5s.44.81.44 1.44v7.9c0 .62-.14 1.1-.42 1.44s-.68.5-1.21.5-.95-.18-1.23-.5zM422.41 124.12c-1.14-1.07-1.71-2.57-1.71-4.5 0-1.09.24-2.09.71-2.99s1.17-1.62 2.08-2.16 1.96-.81 3.15-.81c.93 0 1.75.15 2.46.46s1.28.72 1.7 1.25.74 1.13.96 1.79.33 1.39.33 2.17c0 .31-.08.56-.25.74s-.41.27-.73.27h-7.15c.1 2.1 1.18 3.15 3.25 3.15 1.02 0 2.03-.39 3.05-1.16.14-.12.3-.18.47-.18.13 0 .26.04.39.11s.24.16.33.27.17.24.23.38.09.29.09.43c0 .04 0 .07-.01.11s-.01.06-.01.1-.01.07-.02.1-.03.06-.04.09-.03.06-.05.09l-.06.09c-.02.03-.05.06-.08.09s-.06.06-.09.08c-1.23 1.09-2.74 1.64-4.54 1.64-1.83 0-3.32-.54-4.46-1.61zm6.93-5.46c-.14-2-1.02-3-2.62-3-.83 0-1.48.29-1.95.87s-.73 1.29-.79 2.13h5.36zM438.41 125.11c-.27-.33-.41-.8-.41-1.42v-8.02c0-.61.14-1.07.42-1.38s.68-.46 1.2-.46c.49 0 .89.14 1.2.41s.46.66.46 1.16v.47c.66-1.48 1.94-2.21 3.84-2.21 1.99 0 3.25.85 3.76 2.55.77-1.7 2.18-2.55 4.24-2.55 1.23 0 2.22.38 2.98 1.12s1.14 1.85 1.14 3.29v5.61c0 .62-.14 1.09-.42 1.42s-.69.49-1.22.49c-.51 0-.9-.16-1.19-.49s-.43-.8-.43-1.42v-5.52c0-.77-.19-1.35-.56-1.76s-.87-.62-1.51-.62c-.77 0-1.41.28-1.92.84s-.76 1.33-.76 2.31v4.75c0 .62-.14 1.09-.43 1.42s-.69.49-1.22.49c-.51 0-.9-.16-1.18-.49s-.42-.8-.42-1.42v-5.39c0-.82-.18-1.44-.54-1.87s-.87-.64-1.52-.64c-.8 0-1.44.26-1.92.77s-.73 1.21-.73 2.1v5.03c0 .62-.15 1.09-.44 1.42s-.71.49-1.25.49c-.5.01-.89-.16-1.17-.48zM464.19 111.01c-.34-.31-.5-.72-.5-1.23s.17-.92.51-1.24.79-.47 1.34-.47.99.16 1.33.47.51.73.51 1.24-.17.92-.51 1.23-.79.47-1.34.47-1.01-.16-1.34-.47zm.13 14.1c-.28-.33-.42-.81-.42-1.44v-7.9c0-.62.14-1.1.42-1.44s.67-.5 1.18-.5c.53 0 .94.17 1.24.5s.44.81.44 1.44v7.9c0 .62-.14 1.1-.42 1.44s-.68.5-1.21.5-.95-.18-1.23-.5zM474.82 124.12c-1.14-1.07-1.71-2.57-1.71-4.5 0-1.09.24-2.09.71-2.99s1.17-1.62 2.08-2.16 1.96-.81 3.15-.81c.93 0 1.75.15 2.46.46s1.28.72 1.7 1.25.74 1.13.96 1.79.33 1.39.33 2.17c0 .31-.08.56-.25.74s-.41.27-.73.27h-7.15c.1 2.1 1.18 3.15 3.25 3.15 1.02 0 2.03-.39 3.05-1.16.14-.12.3-.18.47-.18.13 0 .26.04.39.11s.24.16.33.27.17.24.23.38.09.29.09.43c0 .04 0 .07-.01.11s-.01.06-.01.1-.01.07-.02.1-.03.06-.04.09-.03.06-.05.09l-.06.09c-.02.03-.05.06-.08.09s-.06.06-.09.08c-1.23 1.09-2.74 1.64-4.54 1.64-1.83 0-3.32-.54-4.46-1.61zm6.93-5.46c-.14-2-1.02-3-2.62-3-.83 0-1.48.29-1.95.87s-.73 1.29-.79 2.13h5.36zM493.96 122.3c.52.68 1.27 1.01 2.23 1.01.85 0 1.62-.2 2.31-.6.2-.12.4-.18.6-.18a.903.903 0 0 1 .53.16c.08.05.14.11.2.18s.11.15.15.23.08.17.1.26.04.19.04.29c0 .41-.17.75-.52 1.04-.35.3-.86.54-1.53.74s-1.41.29-2.22.29c-1.71 0-3.13-.55-4.27-1.66s-1.71-2.57-1.71-4.4c0-1.12.26-2.15.77-3.06s1.23-1.64 2.16-2.17 1.97-.8 3.12-.8c.74 0 1.42.1 2.03.29s1.1.43 1.46.71c.19.14.33.3.42.47s.13.35.13.54c0 .29-.1.54-.3.76s-.44.32-.73.32h-.09c-.03 0-.06 0-.09-.01s-.06-.02-.1-.02-.07-.02-.1-.03-.06-.03-.1-.04-.07-.03-.1-.05c-.7-.35-1.38-.53-2.04-.53-.48 0-.91.08-1.29.25s-.71.4-.98.71-.48.69-.62 1.14-.22.96-.22 1.52c-.03 1.09.23 1.96.76 2.64zM505.39 125.1c-.27-.33-.4-.81-.4-1.44v-13.08c0-.62.14-1.1.42-1.44s.67-.5 1.18-.5c.53 0 .94.17 1.23.5s.43.81.43 1.44v8.33l4.63-4.78a1.598 1.598 0 0 1 .49-.37c.09-.04.17-.06.25-.08s.17-.03.25-.03c.09 0 .19.01.28.03s.18.05.26.09.16.09.23.14.14.12.21.18.12.14.18.22.1.16.13.25.06.17.08.26.03.19.03.28c0 .34-.12.64-.38.9l-3.26 3.26 3.74 4.02c.25.28.38.58.38.9 0 .38-.15.7-.46.98a1.555 1.555 0 0 1-1.37.39c-.1-.02-.2-.05-.3-.1s-.2-.11-.29-.18-.19-.16-.28-.26l-4.78-5.32v3.96c0 .62-.15 1.1-.44 1.44s-.71.5-1.25.5c-.53.01-.92-.16-1.19-.49zM521.7 111.01c-.34-.31-.5-.72-.5-1.23s.17-.92.51-1.24.79-.47 1.34-.47.99.16 1.33.47.51.73.51 1.24-.17.92-.51 1.23-.79.47-1.34.47-1-.16-1.34-.47zm.13 14.1c-.28-.33-.42-.81-.42-1.44v-7.9c0-.62.14-1.1.42-1.44s.67-.5 1.18-.5c.53 0 .94.17 1.24.5s.44.81.44 1.44v7.9c0 .62-.14 1.1-.42 1.44s-.68.5-1.21.5-.95-.18-1.23-.5zM532.34 124.12c-1.14-1.07-1.71-2.57-1.71-4.5 0-1.09.24-2.09.71-2.99s1.17-1.62 2.08-2.16 1.96-.81 3.15-.81c.93 0 1.75.15 2.46.46s1.28.72 1.7 1.25.74 1.13.96 1.79.33 1.39.33 2.17c0 .31-.08.56-.25.74s-.41.27-.73.27h-7.15c.1 2.1 1.18 3.15 3.25 3.15 1.02 0 2.03-.39 3.05-1.16.14-.12.3-.18.47-.18.13 0 .26.04.39.11s.24.16.33.27.17.24.23.38.09.29.09.43c0 .04 0 .07-.01.11s-.01.06-.01.1-.01.07-.02.1-.03.06-.04.09-.03.06-.05.09l-.06.09c-.02.03-.05.06-.08.09s-.06.06-.09.08c-1.23 1.09-2.74 1.64-4.54 1.64-1.84 0-3.33-.54-4.46-1.61zm6.93-5.46c-.14-2-1.02-3-2.62-3-.83 0-1.48.29-1.95.87s-.73 1.29-.79 2.13h5.36zM556.37 123.65c-.3.66-.74 1.15-1.34 1.47s-1.29.49-2.07.49c-.84 0-1.6-.13-2.29-.39s-1.29-.64-1.78-1.13-.88-1.11-1.15-1.84-.41-1.55-.41-2.46c0-.89.12-1.71.38-2.46s.61-1.39 1.07-1.93 1.04-.96 1.72-1.26 1.46-.45 2.31-.45c.49 0 .93.05 1.32.15s.73.24 1.01.43.53.4.73.63.39.5.56.81v-.43c.02-.47.17-.83.45-1.07s.63-.37 1.07-.37c.5 0 .88.17 1.14.5s.39.82.39 1.46v9.01c0 1.9-.54 3.37-1.61 4.4s-2.58 1.55-4.52 1.55c-.8 0-1.58-.08-2.34-.23s-1.35-.34-1.76-.57c-.45-.24-.68-.58-.68-1.02 0-.29.1-.54.31-.76s.46-.33.77-.33c.02 0 .05 0 .07.01s.04.01.06.01.04 0 .06.01.05.01.07.01.05.01.07.02.05.02.07.02c.04.02.2.07.48.15s.48.14.59.18.29.08.53.13.47.1.69.12.44.04.67.04c.27 0 .51-.01.74-.04s.45-.07.66-.13.4-.13.57-.22.33-.2.48-.32.28-.27.39-.44.2-.36.28-.56.13-.44.17-.7.06-.54.06-.83v-1.66zm-.76-1.1c.51-.61.76-1.55.76-2.84 0-1.26-.21-2.23-.64-2.92s-1.15-1.03-2.16-1.03c-.52 0-.96.1-1.34.31s-.67.5-.88.87-.37.78-.47 1.24-.15.96-.15 1.51c0 1.24.26 2.18.78 2.82s1.21.96 2.07.97c.84-.01 1.52-.32 2.03-.93zM568.96 125.25c-.82-.32-1.47-.77-1.97-1.32s-.88-1.2-1.14-1.91-.39-1.48-.39-2.3c0-.81.13-1.58.38-2.3s.63-1.36 1.13-1.93 1.16-1.02 1.97-1.35 1.74-.5 2.78-.5c1.02 0 1.93.16 2.73.47s1.46.75 1.97 1.31.9 1.2 1.17 1.92.4 1.52.4 2.37c0 .8-.13 1.55-.39 2.26s-.63 1.35-1.13 1.92-1.15 1.02-1.97 1.35-1.74.5-2.78.5c-1.02 0-1.94-.16-2.76-.49zm4.96-2.68c.52-.68.77-1.63.77-2.85 0-1.25-.26-2.22-.77-2.9s-1.24-1.03-2.2-1.03-1.69.34-2.2 1.03-.77 1.65-.77 2.9c0 1.21.26 2.16.77 2.85s1.25 1.03 2.19 1.03 1.7-.35 2.21-1.03z"/></g><g><path class="st0" d="M628.01 121.25h-39.35c-.55 0-1-.45-1-1s.45-1 1-1h39.35c.55 0 1 .45 1 1s-.44 1-1 1z"/></g><g><path class="st1" d="M459.02 88.72c1.25-.04 2.19-.2 2.84-.45.65-.25 1.16-.8 1.53-1.63.37-.83.55-2.15.55-3.95V56.14c0-2.59.09-4.67.28-6.24l-5.2.21v-5.34h34.66l.42 13.45h-4.57c0-3.42-.82-5.79-2.46-7.11-1.64-1.32-3.62-1.93-5.93-1.84l-2.5.07c-1.11.05-1.99.2-2.63.45-.65.25-1.14.82-1.49 1.7-.35.88-.52 2.17-.52 3.88v10.4h8.11c-.05-.79-.14-2.8-.28-6.03h5.34v16.84h-4.57c0-1.85-.29-3.21-.87-4.09-.58-.88-1.33-1.44-2.25-1.7s-2.15-.36-3.67-.31l-1.8.07v11.37c0 2.5-.09 4.53-.28 6.1H483c2.36 0 4.36-.8 6-2.39 1.64-1.59 2.46-4.12 2.46-7.59h4.51l-.35 15.25h-36.6v-4.57zM509.21 88.72c1.25-.04 2.19-.2 2.84-.45.65-.25 1.16-.8 1.53-1.63.37-.83.55-2.15.55-3.95V56.14c0-2.59.09-4.67.28-6.24l-5.2.21v-5.34h19.89v4.58c-1.25.05-2.2.2-2.84.45-.65.25-1.16.8-1.52 1.63-.37.83-.55 2.15-.55 3.95v26.55c0 2.59-.09 4.67-.28 6.24 1.48-.14 3.21-.21 5.2-.21v5.34h-19.89v-4.58zM542.96 88.72c1.25-.04 2.19-.2 2.84-.45.65-.25 1.16-.8 1.53-1.63.37-.83.55-2.15.55-3.95V56.14c0-2.59.09-4.67.28-6.24l-5.2.21v-5.34h19.89v4.58c-1.25.05-2.2.2-2.84.45-.65.25-1.16.8-1.52 1.63-.37.83-.55 2.15-.55 3.95v26.55c0 2.5-.09 4.53-.28 6.1h9.29c2.77-.04 4.92-1.03 6.45-2.95 1.52-1.92 2.29-4.72 2.29-8.42h4.64l-.42 16.64h-36.95v-4.58zM591.76 88.72c1.25-.04 2.19-.2 2.84-.45.65-.25 1.16-.8 1.53-1.63.37-.83.55-2.15.55-3.95V56.14c0-2.59.09-4.67.28-6.24l-5.2.21v-5.34h34.66l.42 13.45h-4.57c0-3.42-.82-5.79-2.46-7.11-1.64-1.32-3.62-1.93-5.93-1.84l-2.5.07c-1.11.05-1.99.2-2.63.45-.65.25-1.14.82-1.49 1.7-.35.88-.52 2.17-.52 3.88v10.4h8.11c-.05-.79-.14-2.8-.28-6.03h5.34v16.84h-4.57c0-1.85-.29-3.21-.87-4.09-.58-.88-1.33-1.44-2.25-1.7s-2.15-.36-3.67-.31l-1.8.07v11.37c0 2.5-.09 4.53-.28 6.1h9.29c2.36 0 4.36-.8 6-2.39 1.64-1.59 2.46-4.12 2.46-7.59h4.51l-.35 15.25h-36.6v-4.57z"/></g></svg>